<svg version="1.1" id="Layer_1" xmlns="http://www.w3.org/2000/svg" x="0px" y="0px"
	 width="256px" height="256px" viewBox="0 0 256 256" enable-background="new 0 0 256 256" xml:space="preserve">
<linearGradient id="SVGID_1_" gradientUnits="userSpaceOnUse" x1="127.9419" y1="254.2305" x2="127.9419" y2="2.5254">
	<stop  offset="0" style="stop-color:#AADBEC"/>
	<stop  offset="0.1273" style="stop-color:#27AAE1"/>
	<stop  offset="0.497" style="stop-color:#FFFFFF"/>
	<stop  offset="0.897" style="stop-color:#36B0E2"/>
	<stop  offset="1" style="stop-color:#A6DAEC"/>
</linearGradient>
<path fill="url(#SVGID_1_)" stroke="#FFC200" stroke-width="3" stroke-miterlimit="10" d="M235.621,254.23H20.263
	c-10.037,0-18.175-8.134-18.175-18.171V20.7c0-10.037,8.138-18.175,18.175-18.175h215.358c10.037,0,18.175,8.138,18.175,18.175
	v215.36C253.796,246.097,245.658,254.23,235.621,254.23z"/>
<path d="M182.16,80.645c-6.96-6.646-17.426-9.969-31.397-9.969H86.606v124.901h38.767v-46.349h21.129
	c15.563,0,27.137-3.549,34.722-10.647c7.582-7.104,11.373-16.956,11.373-29.565C192.597,96.747,189.118,87.289,182.16,80.645z
	 M150.507,120.05c-3.012,2.583-8.236,3.875-15.678,3.875h-9.456v-27.86h10.988c7.219,0,12.131,1.364,14.743,4.09
	s3.918,6.048,3.918,9.969C155.022,114.156,153.52,117.464,150.507,120.05z"/>
<path fill="#FFE600" stroke="#FFAC06" stroke-miterlimit="10" d="M177.614,76.1c-6.954-6.646-17.42-9.969-31.396-9.969H82.064
	v124.902h38.766v-46.347h21.127c15.567,0,27.137-3.551,34.718-10.65c7.586-7.1,11.376-16.955,11.376-29.565
	C188.051,92.203,184.574,82.746,177.614,76.1z M145.962,115.505c-3.008,2.583-8.232,3.877-15.676,3.877h-9.456V91.521h10.991
	c7.211,0,12.126,1.363,14.738,4.089c2.612,2.729,3.919,6.051,3.919,9.97C150.479,109.613,148.974,112.921,145.962,115.505z"/>
</svg>
